<?xml version="1.0" standalone="no"?>
<!DOCTYPE svg PUBLIC "-//W3C//DTD SVG 1.1//EN" "http://www.w3.org/Graphics/SVG/1.1/DTD/svg11.dtd">
<svg xmlns="http://www.w3.org/2000/svg" xmlns:xlink="http://www.w3.org/1999/xlink" width="375" zoomAndPan="magnify" viewBox="0 0 375 374.999991" height="375" preserveAspectRatio="xMidYMid meet" version="1.0"><defs><clipPath id="9a8a311536"><path d="M 20.554688 17.578125 L 360.398438 17.578125 L 360.398438 357.421875 L 20.554688 357.421875 Z M 20.554688 17.578125 " clip-rule="nonzero"/></clipPath><clipPath id="48293f4cb2"><path d="M 360.398438 187.5 C 360.398438 281.34375 284.320312 357.421875 190.476562 357.421875 C 96.628906 357.421875 20.554688 281.34375 20.554688 187.5 L 25.679688 187.5 L 20.554688 187.5 C 20.554688 93.65625 96.628906 17.578125 190.476562 17.578125 L 190.476562 22.703125 L 190.476562 17.578125 C 284.320312 17.578125 360.398438 93.65625 360.398438 187.5 L 355.269531 187.5 L 360.398438 187.5 M 350.144531 187.5 C 350.144531 99.316406 278.65625 27.832031 190.476562 27.832031 C 102.292969 27.832031 30.808594 99.316406 30.808594 187.5 C 30.808594 275.683594 102.292969 347.167969 190.476562 347.167969 C 278.65625 347.167969 350.144531 275.683594 350.144531 187.5 Z M 350.144531 187.5 " clip-rule="nonzero"/></clipPath><clipPath id="3d25129ad7"><path d="M 187.546875 92 L 193.222656 92 L 193.222656 318.96875 L 187.546875 318.96875 Z M 187.546875 92 " clip-rule="nonzero"/></clipPath><clipPath id="e551ec431a"><path d="M 192.226562 94.277344 L 193.203125 316.488281 C 193.210938 317.753906 192.191406 318.78125 190.925781 318.785156 C 189.664062 318.792969 188.632812 317.773438 188.628906 316.507812 L 187.648438 94.300781 C 187.640625 93.035156 188.660156 92.007812 189.925781 92 C 191.1875 91.996094 192.21875 93.015625 192.222656 94.277344 Z M 192.226562 94.277344 " clip-rule="nonzero"/></clipPath><clipPath id="462de3186b"><path d="M 93.246094 85 L 282.578125 85 L 282.578125 92.46875 L 93.246094 92.46875 Z M 93.246094 85 " clip-rule="nonzero"/></clipPath><clipPath id="54b940b6ec"><path d="M 95.609375 85.027344 L 280.171875 87.808594 C 281.4375 87.828125 282.445312 88.867188 282.425781 90.132812 C 282.410156 91.398438 281.367188 92.40625 280.101562 92.386719 L 95.539062 89.601562 C 94.273438 89.585938 93.265625 88.542969 93.285156 87.277344 C 93.300781 86.015625 94.34375 85.007812 95.609375 85.023438 Z M 95.609375 85.027344 " clip-rule="nonzero"/></clipPath><clipPath id="4dd19ae59a"><path d="M 156.785156 186.402344 L 238.816406 186.402344 L 238.816406 201.050781 L 156.785156 201.050781 Z M 156.785156 186.402344 " clip-rule="nonzero"/></clipPath><clipPath id="d8c9dd6e87"><path d="M 158.808594 196.484375 L 236.191406 186.453125 C 237.445312 186.292969 238.59375 187.175781 238.753906 188.429688 C 238.914062 189.683594 238.03125 190.832031 236.777344 190.992188 L 159.394531 201.023438 C 158.140625 201.1875 156.992188 200.300781 156.832031 199.046875 C 156.671875 197.792969 157.554688 196.644531 158.808594 196.484375 Z M 158.808594 196.484375 " clip-rule="nonzero"/></clipPath><clipPath id="2ab4c4f425"><path d="M 227.277344 93.015625 L 242.84375 93.015625 L 242.84375 284.179688 L 227.277344 284.179688 Z M 227.277344 93.015625 " clip-rule="nonzero"/></clipPath><clipPath id="df0c06c80e"><path d="M 232.035156 95.253906 L 242.785156 281.734375 C 242.859375 282.996094 241.890625 284.078125 240.632812 284.152344 C 239.371094 284.226562 238.289062 283.261719 238.214844 282 L 227.464844 95.519531 C 227.390625 94.257812 228.355469 93.175781 229.617188 93.101562 C 230.878906 93.027344 231.960938 93.992188 232.035156 95.253906 Z M 232.035156 95.253906 " clip-rule="nonzero"/></clipPath><clipPath id="04c9a4db19"><path d="M 160.628906 91.371094 L 170.332031 91.371094 L 170.332031 282.898438 L 160.628906 282.898438 Z M 160.628906 91.371094 " clip-rule="nonzero"/></clipPath><clipPath id="fba9b98d85"><path d="M 170.320312 93.894531 L 165.378906 280.496094 C 165.34375 281.757812 164.292969 282.757812 163.027344 282.722656 C 161.765625 282.6875 160.769531 281.636719 160.800781 280.371094 L 165.746094 93.773438 C 165.777344 92.507812 166.832031 91.511719 168.09375 91.546875 C 169.359375 91.582031 170.355469 92.632812 170.320312 93.894531 Z M 170.320312 93.894531 " clip-rule="nonzero"/></clipPath><clipPath id="85fbd4195f"><path d="M 116.132812 87 L 232.222656 87 L 232.222656 293.335938 L 116.132812 293.335938 Z M 116.132812 87 " clip-rule="nonzero"/></clipPath><clipPath id="4a0163b4e8"><path d="M 231.808594 90.441406 L 120.601562 292.121094 C 119.992188 293.230469 118.597656 293.628906 117.492188 293.019531 C 116.386719 292.410156 115.984375 291.015625 116.59375 289.910156 L 227.800781 88.234375 C 228.410156 87.125 229.804688 86.722656 230.910156 87.332031 C 232.015625 87.945312 232.417969 89.335938 231.808594 90.441406 Z M 231.808594 90.441406 " clip-rule="nonzero"/></clipPath><clipPath id="0e6f459453"><path d="M 125.472656 93.382812 L 167.402344 93.382812 L 167.402344 200.5 L 125.472656 200.5 Z M 125.472656 93.382812 " clip-rule="nonzero"/></clipPath><clipPath id="bbaa77e11e"><path d="M 165.722656 97.890625 C 162.816406 98.820312 134.074219 111.230469 130.550781 132.097656 L 128.292969 131.714844 L 130.550781 132.097656 C 127.132812 152.335938 144.933594 179.136719 166.453125 196.269531 C 167.441406 197.058594 167.601562 198.496094 166.816406 199.488281 C 166.027344 200.480469 164.589844 200.640625 163.597656 199.851562 C 141.839844 182.523438 122.171875 154.214844 126.035156 131.332031 C 130.066406 107.488281 161.605469 94.398438 164.328125 93.53125 C 165.535156 93.144531 166.820312 93.808594 167.207031 95.011719 C 167.589844 96.21875 166.925781 97.503906 165.722656 97.890625 Z M 165.722656 97.890625 " clip-rule="nonzero"/></clipPath><clipPath id="2a266598bf"><path d="M 227.644531 96.496094 L 283.492188 96.496094 L 283.492188 282.164062 L 227.644531 282.164062 Z M 227.644531 96.496094 " clip-rule="nonzero"/></clipPath><clipPath id="dac0cf8370"><path d="M 229.953125 96.628906 C 241.199219 96.628906 257.664062 112.140625 259.671875 121.519531 C 265.269531 147.695312 243.144531 174.6875 232.703125 187.238281 L 230.945312 185.773438 L 231.457031 183.546875 C 230.710938 183.371094 279.390625 194.222656 283.152344 222.445312 C 286.8125 249.898438 241.234375 282.019531 241.710938 281.683594 C 240.679688 282.414062 239.25 282.175781 238.519531 281.144531 C 237.785156 280.117188 238.027344 278.6875 239.054688 277.953125 C 239.796875 277.425781 281.824219 247.105469 278.621094 223.050781 L 280.886719 222.746094 L 278.621094 223.050781 C 275.371094 198.671875 231.183594 188.179688 230.4375 188.007812 C 229.660156 187.828125 229.03125 187.261719 228.78125 186.507812 C 228.527344 185.757812 228.679688 184.925781 229.1875 184.3125 C 240.054688 171.246094 260.246094 146.078125 255.195312 122.480469 L 257.433594 122 L 255.195312 122.480469 C 253.578125 114.910156 238.75 101.210938 229.957031 101.210938 C 228.695312 101.210938 227.667969 100.183594 227.667969 98.921875 C 227.667969 97.65625 228.695312 96.632812 229.957031 96.632812 Z M 229.953125 96.628906 " clip-rule="nonzero"/></clipPath></defs><g clip-path="url(#9a8a311536)"><g clip-path="url(#48293f4cb2)"><path fill="#b99a45" d="M 19.636719 16.664062 L 361.3125 16.664062 L 361.3125 358.335938 L 19.636719 358.335938 Z M 19.636719 16.664062 " fill-opacity="1" fill-rule="nonzero"/></g></g><g clip-path="url(#3d25129ad7)"><g clip-path="url(#e551ec431a)"><path fill="#b99a45" d="M 19.636719 16.664062 L 361.3125 16.664062 L 361.3125 358.335938 L 19.636719 358.335938 Z M 19.636719 16.664062 " fill-opacity="1" fill-rule="nonzero"/></g></g><g clip-path="url(#462de3186b)"><g clip-path="url(#54b940b6ec)"><path fill="#b99a45" d="M 19.636719 16.664062 L 361.3125 16.664062 L 361.3125 358.335938 L 19.636719 358.335938 Z M 19.636719 16.664062 " fill-opacity="1" fill-rule="nonzero"/></g></g><g clip-path="url(#4dd19ae59a)"><g clip-path="url(#d8c9dd6e87)"><path fill="#b99a45" d="M 19.636719 16.664062 L 361.3125 16.664062 L 361.3125 358.335938 L 19.636719 358.335938 Z M 19.636719 16.664062 " fill-opacity="1" fill-rule="nonzero"/></g></g><g clip-path="url(#2ab4c4f425)"><g clip-path="url(#df0c06c80e)"><path fill="#b99a45" d="M 19.636719 16.664062 L 361.3125 16.664062 L 361.3125 358.335938 L 19.636719 358.335938 Z M 19.636719 16.664062 " fill-opacity="1" fill-rule="nonzero"/></g></g><g clip-path="url(#04c9a4db19)"><g clip-path="url(#fba9b98d85)"><path fill="#b99a45" d="M 19.636719 16.664062 L 361.3125 16.664062 L 361.3125 358.335938 L 19.636719 358.335938 Z M 19.636719 16.664062 " fill-opacity="1" fill-rule="nonzero"/></g></g><g clip-path="url(#85fbd4195f)"><g clip-path="url(#4a0163b4e8)"><path fill="#b99a45" d="M 19.636719 16.664062 L 361.3125 16.664062 L 361.3125 358.335938 L 19.636719 358.335938 Z M 19.636719 16.664062 " fill-opacity="1" fill-rule="nonzero"/></g></g><g clip-path="url(#0e6f459453)"><g clip-path="url(#bbaa77e11e)"><path fill="#b99a45" d="M 19.636719 16.664062 L 361.3125 16.664062 L 361.3125 358.335938 L 19.636719 358.335938 Z M 19.636719 16.664062 " fill-opacity="1" fill-rule="nonzero"/></g></g><g clip-path="url(#2a266598bf)"><g clip-path="url(#dac0cf8370)"><path fill="#b99a45" d="M 19.636719 16.664062 L 361.3125 16.664062 L 361.3125 358.335938 L 19.636719 358.335938 Z M 19.636719 16.664062 " fill-opacity="1" fill-rule="nonzero"/></g></g></svg>